<svg width="20" height="17" viewBox="0 0 20 17" fill="none" xmlns="http://www.w3.org/2000/svg">
<path d="M11.9917 0.449951L20 8.49995L11.9917 16.55C11.9193 16.6449 11.8275 16.7233 11.7222 16.7796C11.617 16.836 11.5009 16.8691 11.3817 16.8767C11.2626 16.8843 11.1432 16.8662 11.0317 16.8237C10.9201 16.7811 10.819 16.7151 10.7352 16.6301C10.6514 16.5451 10.5869 16.4431 10.5459 16.3309C10.505 16.2188 10.4886 16.0992 10.4979 15.9801C10.5072 15.8611 10.5419 15.7455 10.5998 15.6411C10.6577 15.5367 10.7373 15.4459 10.8333 15.375L16.825 9.33328H0.883331C0.662317 9.33328 0.450357 9.24549 0.294077 9.08921C0.137796 8.93293 0.0499992 8.72097 0.0499992 8.49995C0.0499992 8.27894 0.137796 8.06698 0.294077 7.9107C0.450357 7.75441 0.662317 7.66662 0.883331 7.66662H16.825L10.8333 1.62495C10.6775 1.46803 10.5904 1.25564 10.5912 1.0345C10.592 0.813368 10.6806 0.601599 10.8375 0.445784C10.9944 0.289968 11.2068 0.202873 11.4279 0.203653C11.6491 0.204435 11.8609 0.293032 12.0167 0.449951H11.9917Z" fill="#FF7428"/>
</svg>
