<svg width="313" height="48" viewBox="0 0 313 48" fill="none" xmlns="http://www.w3.org/2000/svg">
<path d="M64.205 44.6873V37.1393H59.909L59.837 39.3953C59.813 40.0593 59.773 40.6953 59.717 41.3033C59.661 41.9113 59.577 42.4593 59.465 42.9473C59.353 43.4273 59.197 43.8153 58.997 44.1113C58.805 44.4073 58.561 44.5673 58.265 44.5913L57.557 44.4353C57.893 44.4593 58.165 44.3433 58.373 44.0873C58.589 43.8313 58.757 43.4673 58.877 42.9953C59.005 42.5233 59.097 41.9753 59.153 41.3513C59.209 40.7273 59.249 40.0593 59.273 39.3473L59.357 36.5873H64.817V44.6873H64.205ZM57.245 46.9073L57.257 44.4353H66.113V46.9073H65.525V44.9873H57.845L57.833 46.9073H57.245ZM71.6706 45.0473C71.0466 45.0473 70.4666 44.9433 69.9306 44.7353C69.4026 44.5193 68.9386 44.2193 68.5386 43.8353C68.1466 43.4433 67.8426 42.9913 67.6266 42.4793C67.4106 41.9593 67.3026 41.3953 67.3026 40.7873C67.3026 40.1793 67.4106 39.6193 67.6266 39.1073C67.8426 38.5873 68.1466 38.1353 68.5386 37.7513C68.9386 37.3593 69.4026 37.0593 69.9306 36.8513C70.4666 36.6353 71.0466 36.5273 71.6706 36.5273C72.2946 36.5273 72.8706 36.6353 73.3986 36.8513C73.9346 37.0593 74.3986 37.3553 74.7906 37.7393C75.1826 38.1233 75.4866 38.5753 75.7026 39.0953C75.9266 39.6073 76.0386 40.1713 76.0386 40.7873C76.0386 41.4033 75.9266 41.9713 75.7026 42.4913C75.4866 43.0033 75.1826 43.4513 74.7906 43.8353C74.3986 44.2193 73.9346 44.5193 73.3986 44.7353C72.8706 44.9433 72.2946 45.0473 71.6706 45.0473ZM71.6706 44.4833C72.2066 44.4833 72.7026 44.3913 73.1586 44.2073C73.6146 44.0233 74.0106 43.7633 74.3466 43.4273C74.6826 43.0913 74.9426 42.6993 75.1266 42.2513C75.3186 41.8033 75.4146 41.3153 75.4146 40.7873C75.4146 40.2513 75.3186 39.7633 75.1266 39.3233C74.9426 38.8753 74.6826 38.4833 74.3466 38.1473C74.0106 37.8113 73.6146 37.5513 73.1586 37.3673C72.7026 37.1833 72.2066 37.0913 71.6706 37.0913C71.1346 37.0913 70.6386 37.1833 70.1826 37.3673C69.7266 37.5513 69.3266 37.8113 68.9826 38.1473C68.6466 38.4833 68.3826 38.8753 68.1906 39.3233C68.0066 39.7633 67.9146 40.2513 67.9146 40.7873C67.9146 41.3153 68.0066 41.8033 68.1906 42.2513C68.3826 42.6993 68.6466 43.0913 68.9826 43.4273C69.3266 43.7633 69.7266 44.0233 70.1826 44.2073C70.6386 44.3913 71.1346 44.4833 71.6706 44.4833ZM78.3011 44.9873V36.5873H85.2131V44.9873H84.6011V36.9473L84.7811 37.1393H78.7331L78.9131 36.9473V44.9873H78.3011ZM91.8386 45.0473C91.2146 45.0473 90.6346 44.9433 90.0986 44.7353C89.5706 44.5193 89.1066 44.2193 88.7066 43.8353C88.3146 43.4433 88.0106 42.9913 87.7946 42.4793C87.5786 41.9593 87.4706 41.3953 87.4706 40.7873C87.4706 40.1793 87.5786 39.6193 87.7946 39.1073C88.0106 38.5873 88.3146 38.1353 88.7066 37.7513C89.1066 37.3593 89.5706 37.0593 90.0986 36.8513C90.6346 36.6353 91.2146 36.5273 91.8386 36.5273C92.4626 36.5273 93.0386 36.6353 93.5666 36.8513C94.1026 37.0593 94.5666 37.3553 94.9586 37.7393C95.3506 38.1233 95.6546 38.5753 95.8706 39.0953C96.0946 39.6073 96.2066 40.1713 96.2066 40.7873C96.2066 41.4033 96.0946 41.9713 95.8706 42.4913C95.6546 43.0033 95.3506 43.4513 94.9586 43.8353C94.5666 44.2193 94.1026 44.5193 93.5666 44.7353C93.0386 44.9433 92.4626 45.0473 91.8386 45.0473ZM91.8386 44.4833C92.3746 44.4833 92.8706 44.3913 93.3266 44.2073C93.7826 44.0233 94.1786 43.7633 94.5146 43.4273C94.8506 43.0913 95.1106 42.6993 95.2946 42.2513C95.4866 41.8033 95.5826 41.3153 95.5826 40.7873C95.5826 40.2513 95.4866 39.7633 95.2946 39.3233C95.1106 38.8753 94.8506 38.4833 94.5146 38.1473C94.1786 37.8113 93.7826 37.5513 93.3266 37.3673C92.8706 37.1833 92.3746 37.0913 91.8386 37.0913C91.3026 37.0913 90.8066 37.1833 90.3506 37.3673C89.8946 37.5513 89.4946 37.8113 89.1506 38.1473C88.8146 38.4833 88.5506 38.8753 88.3586 39.3233C88.1746 39.7633 88.0826 40.2513 88.0826 40.7873C88.0826 41.3153 88.1746 41.8033 88.3586 42.2513C88.5506 42.6993 88.8146 43.0913 89.1506 43.4273C89.4946 43.7633 89.8946 44.0233 90.3506 44.2073C90.8066 44.3913 91.3026 44.4833 91.8386 44.4833ZM98.469 44.9873V36.5873H98.985L102.885 43.3193H102.609L106.497 36.5873H107.001L107.013 44.9873H106.413L106.401 37.5113H106.569L102.885 43.8713H102.585L98.889 37.5113H99.069V44.9873H98.469ZM113.635 45.0473C113.011 45.0473 112.431 44.9433 111.895 44.7353C111.367 44.5193 110.903 44.2193 110.503 43.8353C110.111 43.4433 109.807 42.9913 109.591 42.4793C109.375 41.9593 109.267 41.3953 109.267 40.7873C109.267 40.1793 109.375 39.6193 109.591 39.1073C109.807 38.5873 110.111 38.1353 110.503 37.7513C110.903 37.3593 111.367 37.0593 111.895 36.8513C112.431 36.6353 113.011 36.5273 113.635 36.5273C114.259 36.5273 114.835 36.6353 115.363 36.8513C115.899 37.0593 116.363 37.3553 116.755 37.7393C117.147 38.1233 117.451 38.5753 117.667 39.0953C117.891 39.6073 118.003 40.1713 118.003 40.7873C118.003 41.4033 117.891 41.9713 117.667 42.4913C117.451 43.0033 117.147 43.4513 116.755 43.8353C116.363 44.2193 115.899 44.5193 115.363 44.7353C114.835 44.9433 114.259 45.0473 113.635 45.0473ZM113.635 44.4833C114.171 44.4833 114.667 44.3913 115.123 44.2073C115.579 44.0233 115.975 43.7633 116.311 43.4273C116.647 43.0913 116.907 42.6993 117.091 42.2513C117.283 41.8033 117.379 41.3153 117.379 40.7873C117.379 40.2513 117.283 39.7633 117.091 39.3233C116.907 38.8753 116.647 38.4833 116.311 38.1473C115.975 37.8113 115.579 37.5513 115.123 37.3673C114.667 37.1833 114.171 37.0913 113.635 37.0913C113.099 37.0913 112.603 37.1833 112.147 37.3673C111.691 37.5513 111.291 37.8113 110.947 38.1473C110.611 38.4833 110.347 38.8753 110.155 39.3233C109.971 39.7633 109.879 40.2513 109.879 40.7873C109.879 41.3153 109.971 41.8033 110.155 42.2513C110.347 42.6993 110.611 43.0913 110.947 43.4273C111.291 43.7633 111.691 44.0233 112.147 44.2073C112.603 44.3913 113.099 44.4833 113.635 44.4833ZM120.266 44.9873V36.5873H125.462V37.1393H120.698L120.878 36.9473V44.9873H120.266ZM124.232 44.9873L128.096 36.5873H128.708L132.572 44.9873H131.912L128.264 36.9713H128.528L124.892 44.9873H124.232ZM125.648 42.6233L125.852 42.1073H130.88L131.084 42.6233H125.648ZM140.999 45.0473C140.375 45.0473 139.795 44.9433 139.259 44.7353C138.731 44.5193 138.271 44.2193 137.879 43.8353C137.487 43.4513 137.183 43.0033 136.967 42.4913C136.751 41.9713 136.643 41.4033 136.643 40.7873C136.643 40.1713 136.751 39.6073 136.967 39.0953C137.183 38.5753 137.487 38.1233 137.879 37.7393C138.279 37.3553 138.743 37.0593 139.271 36.8513C139.799 36.6353 140.375 36.5273 140.999 36.5273C141.591 36.5273 142.143 36.6233 142.655 36.8153C143.175 37.0073 143.619 37.2993 143.987 37.6913L143.603 38.0873C143.243 37.7353 142.843 37.4833 142.403 37.3313C141.971 37.1713 141.511 37.0913 141.023 37.0913C140.487 37.0913 139.987 37.1833 139.523 37.3673C139.067 37.5513 138.667 37.8113 138.323 38.1473C137.987 38.4833 137.723 38.8753 137.531 39.3233C137.347 39.7713 137.255 40.2593 137.255 40.7873C137.255 41.3153 137.347 41.8033 137.531 42.2513C137.723 42.6993 137.987 43.0913 138.323 43.4273C138.667 43.7633 139.067 44.0233 139.523 44.2073C139.987 44.3913 140.487 44.4833 141.023 44.4833C141.511 44.4833 141.971 44.4073 142.403 44.2553C142.843 44.0953 143.243 43.8353 143.603 43.4753L143.987 43.8713C143.619 44.2633 143.175 44.5593 142.655 44.7593C142.143 44.9513 141.591 45.0473 140.999 45.0473ZM147.492 44.9873V36.9473L147.672 37.1393H144.468V36.5873H151.128V37.1393H147.924L148.104 36.9473V44.9873H147.492ZM152.147 44.3633C152.539 44.5153 152.919 44.5513 153.287 44.4713C153.655 44.3833 154.003 44.0833 154.331 43.5713L154.739 42.9353L154.811 42.8393L158.123 36.5873H158.759L154.883 43.7153C154.643 44.1713 154.359 44.5073 154.031 44.7233C153.711 44.9393 153.371 45.0513 153.011 45.0593C152.659 45.0753 152.307 45.0113 151.955 44.8673L152.147 44.3633ZM154.775 43.4273L151.175 36.5873H151.847L155.123 42.8873L154.775 43.4273ZM165.76 44.6873V37.1393H161.464L161.392 39.3953C161.368 40.0593 161.328 40.6953 161.272 41.3033C161.216 41.9113 161.132 42.4593 161.02 42.9473C160.908 43.4273 160.752 43.8153 160.552 44.1113C160.36 44.4073 160.116 44.5673 159.82 44.5913L159.112 44.4353C159.448 44.4593 159.72 44.3433 159.928 44.0873C160.144 43.8313 160.312 43.4673 160.432 42.9953C160.56 42.5233 160.652 41.9753 160.708 41.3513C160.764 40.7273 160.804 40.0593 160.828 39.3473L160.912 36.5873H166.372V44.6873H165.76ZM158.8 46.9073L158.812 44.4353H167.668V46.9073H167.08V44.9873H159.4L159.388 46.9073H158.8ZM170.165 40.4513H174.713V40.9913H170.165V40.4513ZM170.237 44.4353H175.421V44.9873H169.625V36.5873H175.241V37.1393H170.237V44.4353ZM183.693 36.5873H184.305V44.9873H183.693V36.5873ZM178.077 44.9873H177.465V36.5873H178.077V44.9873ZM183.765 40.9913H178.005V40.4513H183.765V40.9913ZM188.964 44.9873V36.9473L189.144 37.1393H185.94V36.5873H192.6V37.1393H189.396L189.576 36.9473V44.9873H188.964ZM192.529 44.9873L196.393 36.5873H197.005L200.869 44.9873H200.209L196.561 36.9713H196.825L193.189 44.9873H192.529ZM193.945 42.6233L194.149 42.1073H199.177L199.381 42.6233H193.945ZM202.614 44.9873V36.5873H203.13L207.03 43.3193H206.754L210.642 36.5873H211.146L211.158 44.9873H210.558L210.546 37.5113H210.714L207.03 43.8713H206.73L203.034 37.5113H203.214V44.9873H202.614ZM216.194 43.9073L216.446 43.4753C216.822 43.8193 217.246 44.0753 217.718 44.2433C218.19 44.4113 218.666 44.4993 219.146 44.5073C219.626 44.5073 220.066 44.4353 220.466 44.2913C220.874 44.1393 221.202 43.9193 221.45 43.6313C221.698 43.3353 221.822 42.9793 221.822 42.5633C221.822 42.0193 221.614 41.6033 221.198 41.3153C220.782 41.0273 220.198 40.8833 219.446 40.8833H217.718V40.3553H219.422C220.062 40.3553 220.562 40.2193 220.922 39.9473C221.282 39.6673 221.462 39.2833 221.462 38.7953C221.462 38.4433 221.362 38.1433 221.162 37.8953C220.97 37.6473 220.706 37.4553 220.37 37.3193C220.042 37.1753 219.67 37.0953 219.254 37.0793C218.838 37.0633 218.406 37.1153 217.958 37.2353C217.518 37.3553 217.094 37.5473 216.686 37.8113L216.458 37.2953C216.946 36.9993 217.45 36.7913 217.97 36.6713C218.49 36.5433 218.994 36.4993 219.482 36.5393C219.978 36.5793 220.418 36.6913 220.802 36.8753C221.194 37.0593 221.506 37.3073 221.738 37.6193C221.97 37.9313 222.086 38.2993 222.086 38.7233C222.086 39.1313 221.986 39.4873 221.786 39.7913C221.586 40.0873 221.302 40.3193 220.934 40.4873C220.566 40.6473 220.134 40.7273 219.638 40.7273L219.686 40.4993C220.254 40.4993 220.742 40.5873 221.15 40.7633C221.566 40.9393 221.886 41.1873 222.11 41.5073C222.334 41.8273 222.446 42.2033 222.446 42.6353C222.446 43.0513 222.342 43.4193 222.134 43.7393C221.934 44.0513 221.658 44.3113 221.306 44.5193C220.962 44.7193 220.57 44.8673 220.13 44.9633C219.698 45.0513 219.25 45.0713 218.786 45.0233C218.322 44.9833 217.866 44.8713 217.418 44.6873C216.97 44.5033 216.562 44.2433 216.194 43.9073ZM223.548 44.9873L227.412 36.5873H228.024L231.888 44.9873H231.228L227.58 36.9713H227.844L224.208 44.9873H223.548ZM224.964 42.6233L225.168 42.1073H230.196L230.4 42.6233H224.964ZM242.547 44.9873L239.151 40.7633L239.667 40.4633L243.267 44.9873H242.547ZM236.715 44.9873V36.5873H237.327V44.9873H236.715ZM237.123 41.0033V40.4513H239.679V41.0033H237.123ZM239.703 40.8473L239.139 40.7273L242.367 36.5873H243.051L239.703 40.8473ZM248.354 45.0473C247.73 45.0473 247.15 44.9433 246.614 44.7353C246.086 44.5193 245.622 44.2193 245.222 43.8353C244.83 43.4433 244.526 42.9913 244.31 42.4793C244.094 41.9593 243.986 41.3953 243.986 40.7873C243.986 40.1793 244.094 39.6193 244.31 39.1073C244.526 38.5873 244.83 38.1353 245.222 37.7513C245.622 37.3593 246.086 37.0593 246.614 36.8513C247.15 36.6353 247.73 36.5273 248.354 36.5273C248.978 36.5273 249.554 36.6353 250.082 36.8513C250.618 37.0593 251.082 37.3553 251.474 37.7393C251.866 38.1233 252.17 38.5753 252.386 39.0953C252.61 39.6073 252.722 40.1713 252.722 40.7873C252.722 41.4033 252.61 41.9713 252.386 42.4913C252.17 43.0033 251.866 43.4513 251.474 43.8353C251.082 44.2193 250.618 44.5193 250.082 44.7353C249.554 44.9433 248.978 45.0473 248.354 45.0473ZM248.354 44.4833C248.89 44.4833 249.386 44.3913 249.842 44.2073C250.298 44.0233 250.694 43.7633 251.03 43.4273C251.366 43.0913 251.626 42.6993 251.81 42.2513C252.002 41.8033 252.098 41.3153 252.098 40.7873C252.098 40.2513 252.002 39.7633 251.81 39.3233C251.626 38.8753 251.366 38.4833 251.03 38.1473C250.694 37.8113 250.298 37.5513 249.842 37.3673C249.386 37.1833 248.89 37.0913 248.354 37.0913C247.818 37.0913 247.322 37.1833 246.866 37.3673C246.41 37.5513 246.01 37.8113 245.666 38.1473C245.33 38.4833 245.066 38.8753 244.874 39.3233C244.69 39.7633 244.598 40.2513 244.598 40.7873C244.598 41.3153 244.69 41.8033 244.874 42.2513C245.066 42.6993 245.33 43.0913 245.666 43.4273C246.01 43.7633 246.41 44.0233 246.866 44.2073C247.322 44.3913 247.818 44.4833 248.354 44.4833ZM254.985 44.9873V36.5873H257.997C258.701 36.5873 259.305 36.6993 259.809 36.9233C260.313 37.1473 260.701 37.4713 260.973 37.8953C261.245 38.3113 261.381 38.8193 261.381 39.4193C261.381 40.0033 261.245 40.5073 260.973 40.9313C260.701 41.3553 260.313 41.6793 259.809 41.9033C259.305 42.1273 258.701 42.2393 257.997 42.2393H255.321L255.597 41.9513V44.9873H254.985ZM255.597 41.9873L255.321 41.6873H257.997C258.901 41.6873 259.585 41.4913 260.049 41.0993C260.521 40.6993 260.757 40.1393 260.757 39.4193C260.757 38.6913 260.521 38.1313 260.049 37.7393C259.585 37.3393 258.901 37.1393 257.997 37.1393H255.321L255.597 36.8393V41.9873ZM268.627 44.6873V37.1393H264.331L264.259 39.3953C264.235 40.0593 264.195 40.6953 264.139 41.3033C264.083 41.9113 263.999 42.4593 263.887 42.9473C263.775 43.4273 263.619 43.8153 263.419 44.1113C263.227 44.4073 262.983 44.5673 262.687 44.5913L261.979 44.4353C262.315 44.4593 262.587 44.3433 262.795 44.0873C263.011 43.8313 263.179 43.4673 263.299 42.9953C263.427 42.5233 263.519 41.9753 263.575 41.3513C263.631 40.7273 263.671 40.0593 263.695 39.3473L263.779 36.5873H269.239V44.6873H268.627ZM261.667 46.9073L261.679 44.4353H270.535V46.9073H269.947V44.9873H262.267L262.255 46.9073H261.667ZM276.092 45.0473C275.468 45.0473 274.888 44.9433 274.352 44.7353C273.824 44.5193 273.36 44.2193 272.96 43.8353C272.568 43.4433 272.264 42.9913 272.048 42.4793C271.832 41.9593 271.724 41.3953 271.724 40.7873C271.724 40.1793 271.832 39.6193 272.048 39.1073C272.264 38.5873 272.568 38.1353 272.96 37.7513C273.36 37.3593 273.824 37.0593 274.352 36.8513C274.888 36.6353 275.468 36.5273 276.092 36.5273C276.716 36.5273 277.292 36.6353 277.82 36.8513C278.356 37.0593 278.82 37.3553 279.212 37.7393C279.604 38.1233 279.908 38.5753 280.124 39.0953C280.348 39.6073 280.46 40.1713 280.46 40.7873C280.46 41.4033 280.348 41.9713 280.124 42.4913C279.908 43.0033 279.604 43.4513 279.212 43.8353C278.82 44.2193 278.356 44.5193 277.82 44.7353C277.292 44.9433 276.716 45.0473 276.092 45.0473ZM276.092 44.4833C276.628 44.4833 277.124 44.3913 277.58 44.2073C278.036 44.0233 278.432 43.7633 278.768 43.4273C279.104 43.0913 279.364 42.6993 279.548 42.2513C279.74 41.8033 279.836 41.3153 279.836 40.7873C279.836 40.2513 279.74 39.7633 279.548 39.3233C279.364 38.8753 279.104 38.4833 278.768 38.1473C278.432 37.8113 278.036 37.5513 277.58 37.3673C277.124 37.1833 276.628 37.0913 276.092 37.0913C275.556 37.0913 275.06 37.1833 274.604 37.3673C274.148 37.5513 273.748 37.8113 273.404 38.1473C273.068 38.4833 272.804 38.8753 272.612 39.3233C272.428 39.7633 272.336 40.2513 272.336 40.7873C272.336 41.3153 272.428 41.8033 272.612 42.2513C272.804 42.6993 273.068 43.0913 273.404 43.4273C273.748 43.7633 274.148 44.0233 274.604 44.2073C275.06 44.3913 275.556 44.4833 276.092 44.4833ZM288.951 36.5873H289.563V44.9873H288.951V36.5873ZM283.335 44.9873H282.723V36.5873H283.335V44.9873ZM289.023 40.9913H283.263V40.4513H289.023V40.9913ZM296.19 45.0473C295.566 45.0473 294.986 44.9433 294.45 44.7353C293.922 44.5193 293.458 44.2193 293.058 43.8353C292.666 43.4433 292.362 42.9913 292.146 42.4793C291.93 41.9593 291.822 41.3953 291.822 40.7873C291.822 40.1793 291.93 39.6193 292.146 39.1073C292.362 38.5873 292.666 38.1353 293.058 37.7513C293.458 37.3593 293.922 37.0593 294.45 36.8513C294.986 36.6353 295.566 36.5273 296.19 36.5273C296.814 36.5273 297.39 36.6353 297.918 36.8513C298.454 37.0593 298.918 37.3553 299.31 37.7393C299.702 38.1233 300.006 38.5753 300.222 39.0953C300.446 39.6073 300.558 40.1713 300.558 40.7873C300.558 41.4033 300.446 41.9713 300.222 42.4913C300.006 43.0033 299.702 43.4513 299.31 43.8353C298.918 44.2193 298.454 44.5193 297.918 44.7353C297.39 44.9433 296.814 45.0473 296.19 45.0473ZM296.19 44.4833C296.726 44.4833 297.222 44.3913 297.678 44.2073C298.134 44.0233 298.53 43.7633 298.866 43.4273C299.202 43.0913 299.462 42.6993 299.646 42.2513C299.838 41.8033 299.934 41.3153 299.934 40.7873C299.934 40.2513 299.838 39.7633 299.646 39.3233C299.462 38.8753 299.202 38.4833 298.866 38.1473C298.53 37.8113 298.134 37.5513 297.678 37.3673C297.222 37.1833 296.726 37.0913 296.19 37.0913C295.654 37.0913 295.158 37.1833 294.702 37.3673C294.246 37.5513 293.846 37.8113 293.502 38.1473C293.166 38.4833 292.902 38.8753 292.71 39.3233C292.526 39.7633 292.434 40.2513 292.434 40.7873C292.434 41.3153 292.526 41.8033 292.71 42.2513C292.902 42.6993 293.166 43.0913 293.502 43.4273C293.846 43.7633 294.246 44.0233 294.702 44.2073C295.158 44.3913 295.654 44.4833 296.19 44.4833ZM302.821 44.9873V36.5873H303.337L307.237 43.3193H306.961L310.849 36.5873H311.353L311.365 44.9873H310.765L310.753 37.5113H310.921L307.237 43.8713H306.937L303.241 37.5113H303.421V44.9873H302.821Z" fill="black"/>
<path d="M36.1236 4.6274C37.4832 5.33633 38.7737 6.26062 40.7958 7.92373C42.7879 9.56266 44.0604 11.1871 44.7525 12.2094C42.6984 13.8176 38.4762 17.4396 35.1736 22.3542C31.1559 28.3315 29.2548 31.6612 28.4293 33.2281C28.3463 33.2272 28.2638 33.2272 28.1808 33.2272C22.197 33.2272 16.2043 34.9 11.5646 36.6549L24.4366 25.3415C24.8531 25.4448 25.2851 25.4993 25.7187 25.4993C26.9682 25.4993 28.1438 25.0717 29.0293 24.295C29.9173 23.5145 30.4079 22.475 30.4079 21.3705C30.4079 20.2656 29.9178 19.2266 29.0303 18.4469C28.1423 17.6659 26.9607 17.2356 25.7042 17.2356C24.4476 17.2356 23.2666 17.6655 22.3795 18.4447C21.1525 19.5202 20.7395 21.0813 21.188 22.4847L8.31292 33.8003C10.3385 29.6654 12.2676 24.3073 12.2111 18.973C13.9932 18.2478 17.7813 16.5772 24.5801 13.0471C30.1729 10.145 34.2925 6.43467 36.1236 4.6274ZM35.6631 2.505C35.6631 2.505 30.9099 7.80726 23.6071 11.5976C13.5936 16.7961 10.2535 17.8874 10.2535 17.8874C10.9875 28.7257 2.20266 40.411 2.20266 40.411C2.20266 40.411 1.90764 40.3367 1.53113 40.3367C1.01711 40.3367 0.352078 40.4743 0.075566 41.1261C-0.193446 41.759 0.313076 42.4609 0.696593 42.8749L23.4911 22.8407C22.661 21.8799 22.7335 20.5113 23.7311 19.6367C24.2756 19.1585 24.9891 18.919 25.7037 18.919C26.4172 18.919 27.1312 19.158 27.6747 19.6367C28.7643 20.5935 28.7643 22.1472 27.6747 23.104C27.1322 23.5791 26.4262 23.816 25.7182 23.816C25.1246 23.816 24.5291 23.649 24.0306 23.3176L1.23662 43.3518C1.61613 43.6229 2.20816 43.9618 2.79918 43.9618C2.94319 43.9618 3.08669 43.942 3.2272 43.8963C4.51576 43.4739 4.04224 42.0253 4.04224 42.0253C4.04224 42.0253 16.2923 34.9105 28.1803 34.9105C28.6758 34.9105 29.1703 34.9228 29.6643 34.9483C29.6643 34.9483 30.9054 32.012 36.8211 23.2108C41.1333 16.7944 47.1651 12.6151 47.1651 12.6151C47.1651 12.6151 45.7405 9.68748 42.1044 6.69486C39.3907 4.46214 37.8477 3.43105 35.6631 2.505Z" fill="#59565C"/>
<path d="M49.0451 11.8047C48.6741 11.8047 48.3206 11.6139 48.164 11.2957C48.151 11.268 46.757 8.47889 43.3298 5.65811C40.6042 3.41617 39.1542 2.47122 37.1261 1.61286C36.6491 1.41156 36.449 0.908323 36.6781 0.48947C36.9096 0.0701771 37.4816 -0.105187 37.9571 0.0961082C40.1872 1.0393 41.7493 2.05149 44.6399 4.42836C48.3781 7.50581 49.8636 10.505 49.9241 10.6312C50.1331 11.0584 49.9076 11.5519 49.4221 11.7352C49.2986 11.7827 49.1706 11.8047 49.0451 11.8047Z" fill="#59565C"/>
<path d="M65.3068 23.2137C64.1042 23.2137 62.9528 23.045 61.8528 22.7077C60.7528 22.3557 59.8802 21.9083 59.2348 21.3657L60.2248 19.1437C60.8408 19.6277 61.6035 20.031 62.5128 20.3537C63.4222 20.6763 64.3535 20.8377 65.3068 20.8377C66.1135 20.8377 66.7662 20.7497 67.2648 20.5737C67.7635 20.3977 68.1302 20.163 68.3648 19.8697C68.5995 19.5617 68.7168 19.217 68.7168 18.8357C68.7168 18.3663 68.5482 17.9923 68.2108 17.7137C67.8735 17.4203 67.4335 17.193 66.8908 17.0317C66.3628 16.8557 65.7688 16.6943 65.1088 16.5477C64.4635 16.401 63.8108 16.2323 63.1508 16.0417C62.5055 15.8363 61.9115 15.5797 61.3688 15.2717C60.8408 14.949 60.4082 14.5237 60.0708 13.9957C59.7335 13.4677 59.5648 12.793 59.5648 11.9717C59.5648 11.1357 59.7848 10.373 60.2248 9.68365C60.6795 8.97965 61.3615 8.42232 62.2708 8.01165C63.1948 7.58632 64.3608 7.37365 65.7688 7.37365C66.6928 7.37365 67.6095 7.49099 68.5188 7.72565C69.4282 7.96032 70.2202 8.29765 70.8948 8.73765L69.9928 10.9597C69.3035 10.549 68.5922 10.2483 67.8588 10.0577C67.1255 9.85232 66.4215 9.74965 65.7468 9.74965C64.9548 9.74965 64.3095 9.84498 63.8108 10.0357C63.3268 10.2263 62.9675 10.4757 62.7328 10.7837C62.5128 11.0917 62.4028 11.4437 62.4028 11.8397C62.4028 12.309 62.5642 12.6903 62.8868 12.9837C63.2242 13.2623 63.6568 13.4823 64.1848 13.6437C64.7275 13.805 65.3288 13.9663 65.9888 14.1277C66.6488 14.2743 67.3015 14.443 67.9468 14.6337C68.6068 14.8243 69.2008 15.0737 69.7288 15.3817C70.2715 15.6897 70.7042 16.1077 71.0268 16.6357C71.3642 17.1637 71.5328 17.831 71.5328 18.6377C71.5328 19.459 71.3055 20.2217 70.8508 20.9257C70.4108 21.615 69.7288 22.1723 68.8048 22.5977C67.8808 23.0083 66.7148 23.2137 65.3068 23.2137ZM77.2779 22.9937V10.0137H72.1739V7.59365H85.2419V10.0137H80.1379V22.9937H77.2779ZM93.731 23.2137C91.619 23.2137 89.9617 22.6197 88.759 21.4317C87.571 20.2437 86.977 18.5277 86.977 16.2837V7.59365H89.837V16.1737C89.837 17.7577 90.1743 18.909 90.849 19.6277C91.5383 20.3463 92.5063 20.7057 93.753 20.7057C94.9997 20.7057 95.9603 20.3463 96.635 19.6277C97.3097 18.909 97.647 17.7577 97.647 16.1737V7.59365H100.463V16.2837C100.463 18.5277 99.8617 20.2437 98.659 21.4317C97.471 22.6197 95.8283 23.2137 93.731 23.2137ZM104.468 22.9937V7.59365H111.2C112.872 7.59365 114.339 7.91632 115.6 8.56165C116.862 9.20698 117.844 10.1017 118.548 11.2457C119.252 12.3897 119.604 13.739 119.604 15.2937C119.604 16.8337 119.252 18.183 118.548 19.3417C117.844 20.4857 116.862 21.3803 115.6 22.0257C114.339 22.671 112.872 22.9937 111.2 22.9937H104.468ZM107.328 20.5737H111.068C112.227 20.5737 113.224 20.3537 114.06 19.9137C114.911 19.4737 115.564 18.8577 116.018 18.0657C116.488 17.2737 116.722 16.3497 116.722 15.2937C116.722 14.223 116.488 13.299 116.018 12.5217C115.564 11.7297 114.911 11.1137 114.06 10.6737C113.224 10.2337 112.227 10.0137 111.068 10.0137H107.328V20.5737ZM125.196 19.3637L125.042 15.9757L133.116 7.59365H136.328L129.618 14.7217L128.034 16.4597L125.196 19.3637ZM122.644 22.9937V7.59365H125.504V22.9937H122.644ZM133.38 22.9937L127.484 15.9757L129.376 13.8857L136.724 22.9937H133.38ZM145.329 23.2137C144.126 23.2137 143.019 23.0157 142.007 22.6197C140.995 22.2237 140.115 21.6737 139.367 20.9697C138.619 20.251 138.04 19.415 137.629 18.4617C137.218 17.4937 137.013 16.4377 137.013 15.2937C137.013 14.1497 137.218 13.101 137.629 12.1477C138.04 11.1797 138.619 10.3437 139.367 9.63965C140.115 8.92099 140.995 8.36365 142.007 7.96765C143.019 7.57165 144.119 7.37365 145.307 7.37365C146.51 7.37365 147.61 7.57165 148.607 7.96765C149.619 8.36365 150.499 8.92099 151.247 9.63965C151.995 10.3437 152.574 11.1797 152.985 12.1477C153.396 13.101 153.601 14.1497 153.601 15.2937C153.601 16.4377 153.396 17.4937 152.985 18.4617C152.574 19.4297 151.995 20.2657 151.247 20.9697C150.499 21.6737 149.619 22.2237 148.607 22.6197C147.61 23.0157 146.517 23.2137 145.329 23.2137ZM145.307 20.7057C146.084 20.7057 146.803 20.5737 147.463 20.3097C148.123 20.0457 148.695 19.6717 149.179 19.1877C149.663 18.689 150.037 18.117 150.301 17.4717C150.58 16.8117 150.719 16.0857 150.719 15.2937C150.719 14.5017 150.58 13.783 150.301 13.1377C150.037 12.4777 149.663 11.9057 149.179 11.4217C148.695 10.923 148.123 10.5417 147.463 10.2777C146.803 10.0137 146.084 9.88165 145.307 9.88165C144.53 9.88165 143.811 10.0137 143.151 10.2777C142.506 10.5417 141.934 10.923 141.435 11.4217C140.951 11.9057 140.57 12.4777 140.291 13.1377C140.027 13.783 139.895 14.5017 139.895 15.2937C139.895 16.071 140.027 16.7897 140.291 17.4497C140.57 18.1097 140.951 18.689 141.435 19.1877C141.919 19.6717 142.491 20.0457 143.151 20.3097C143.811 20.5737 144.53 20.7057 145.307 20.7057ZM156.632 22.9937V7.59365H158.986L168.644 19.4517H167.478V7.59365H170.316V22.9937H167.962L158.304 11.1357H159.47V22.9937H156.632ZM179.217 23.2137C178.014 23.2137 176.863 23.045 175.763 22.7077C174.663 22.3557 173.79 21.9083 173.145 21.3657L174.135 19.1437C174.751 19.6277 175.514 20.031 176.423 20.3537C177.332 20.6763 178.264 20.8377 179.217 20.8377C180.024 20.8377 180.676 20.7497 181.175 20.5737C181.674 20.3977 182.04 20.163 182.275 19.8697C182.51 19.5617 182.627 19.217 182.627 18.8357C182.627 18.3663 182.458 17.9923 182.121 17.7137C181.784 17.4203 181.344 17.193 180.801 17.0317C180.273 16.8557 179.679 16.6943 179.019 16.5477C178.374 16.401 177.721 16.2323 177.061 16.0417C176.416 15.8363 175.822 15.5797 175.279 15.2717C174.751 14.949 174.318 14.5237 173.981 13.9957C173.644 13.4677 173.475 12.793 173.475 11.9717C173.475 11.1357 173.695 10.373 174.135 9.68365C174.59 8.97965 175.272 8.42232 176.181 8.01165C177.105 7.58632 178.271 7.37365 179.679 7.37365C180.603 7.37365 181.52 7.49099 182.429 7.72565C183.338 7.96032 184.13 8.29765 184.805 8.73765L183.903 10.9597C183.214 10.549 182.502 10.2483 181.769 10.0577C181.036 9.85232 180.332 9.74965 179.657 9.74965C178.865 9.74965 178.22 9.84498 177.721 10.0357C177.237 10.2263 176.878 10.4757 176.643 10.7837C176.423 11.0917 176.313 11.4437 176.313 11.8397C176.313 12.309 176.474 12.6903 176.797 12.9837C177.134 13.2623 177.567 13.4823 178.095 13.6437C178.638 13.805 179.239 13.9663 179.899 14.1277C180.559 14.2743 181.212 14.443 181.857 14.6337C182.517 14.8243 183.111 15.0737 183.639 15.3817C184.182 15.6897 184.614 16.1077 184.937 16.6357C185.274 17.1637 185.443 17.831 185.443 18.6377C185.443 19.459 185.216 20.2217 184.761 20.9257C184.321 21.615 183.639 22.1723 182.715 22.5977C181.791 23.0083 180.625 23.2137 179.217 23.2137ZM194.901 23.2137C192.789 23.2137 191.132 22.6197 189.929 21.4317C188.741 20.2437 188.147 18.5277 188.147 16.2837V7.59365H191.007V16.1737C191.007 17.7577 191.344 18.909 192.019 19.6277C192.708 20.3463 193.676 20.7057 194.923 20.7057C196.17 20.7057 197.13 20.3463 197.805 19.6277C198.48 18.909 198.817 17.7577 198.817 16.1737V7.59365H201.633V16.2837C201.633 18.5277 201.032 20.2437 199.829 21.4317C198.641 22.6197 196.998 23.2137 194.901 23.2137ZM205.638 22.9937V7.59365H208.498V20.5737H216.55V22.9937H205.638ZM220.493 22.9937V10.0137H215.389V7.59365H228.457V10.0137H223.353V22.9937H220.493Z" fill="#FE5A01"/>
</svg>
