<svg width="40" height="34" viewBox="0 0 40 34" fill="none" xmlns="http://www.w3.org/2000/svg">
<path d="M4.48807 14.8766C14.2067 10.6433 20.6859 7.85219 23.9254 6.50376C33.1858 2.65327 35.1076 1.98452 36.3628 1.96187C36.6389 1.95744 37.2535 2.02567 37.6545 2.34988C37.9878 2.62332 38.0816 2.99311 38.1284 3.25274C38.1701 3.51212 38.2274 4.10326 38.1805 4.56471C37.6805 9.83551 35.5087 22.626 34.4045 28.5296C33.941 31.0275 33.0191 31.865 32.1285 31.9468C30.191 32.1249 28.7223 30.6676 26.8473 29.439C23.915 27.5156 22.2588 26.3187 19.4098 24.4422C16.1182 22.2734 18.2536 21.0813 20.1286 19.1334C20.6182 18.6235 29.1493 10.8657 29.3108 10.1621C29.3316 10.074 29.3525 9.74592 29.1546 9.57301C28.9619 9.39957 28.6754 9.45895 28.4671 9.50582C28.1702 9.57249 23.4879 12.6704 14.4047 18.799C13.0765 19.7125 11.8734 20.1578 10.7901 20.1344C9.60261 20.1089 7.31096 19.4615 5.60785 18.9084C3.52453 18.2297 1.86309 17.8709 2.00892 16.7183C2.08183 16.1183 2.90995 15.5042 4.48807 14.8766Z" stroke="#2BACEF" stroke-width="2.49998"/>
</svg>
